<?xml version="1.0" encoding="UTF-8" standalone="no"?>
<svg
   xmlns:dc="http://purl.org/dc/elements/1.1/"
   xmlns:cc="http://creativecommons.org/ns#"
   xmlns:rdf="http://www.w3.org/1999/02/22-rdf-syntax-ns#"
   xmlns:svg="http://www.w3.org/2000/svg"
   xmlns="http://www.w3.org/2000/svg"
   xmlns:sodipodi="http://sodipodi.sourceforge.net/DTD/sodipodi-0.dtd"
   xmlns:inkscape="http://www.inkscape.org/namespaces/inkscape"
   width="200"
   height="200"
   id="svg2"
   version="1.1"
   inkscape:version="0.91 r13725"
   sodipodi:docname="osprey.svg">
  <sodipodi:namedview
     pagecolor="#ffffff"
     bordercolor="#666666"
     borderopacity="1"
     objecttolerance="10"
     gridtolerance="10"
     guidetolerance="10"
     inkscape:pageopacity="0"
     inkscape:pageshadow="2"
     inkscape:window-width="1035"
     inkscape:window-height="629"
     id="namedview13"
     showgrid="false"
     inkscape:zoom="0.78666667"
     inkscape:cx="355.29661"
     inkscape:cy="150"
     inkscape:window-x="0"
     inkscape:window-y="23"
     inkscape:window-maximized="0"
     inkscape:current-layer="svg2" />
  <metadata
     id="metadata18">
    <rdf:RDF>
      <cc:Work
         rdf:about="">
        <dc:format>image/svg+xml</dc:format>
        <dc:type
           rdf:resource="http://purl.org/dc/dcmitype/StillImage" />
      </cc:Work>
    </rdf:RDF>
  </metadata>
  <defs
     id="defs16" />
  <g
     id="g3338"
     transform="matrix(0.66666667,0,0,0.66666667,0.01789954,6.3097326)">
    <g
       id="g3345"
       transform="matrix(0.99328918,0,0,0.9970895,0.67090184,1.1366533)">
      <g
         id="g3340"
         transform="matrix(0.99970218,0,0,1,-100.55589,-100.2919)">
        <path
           inkscape:connector-curvature="0"
           id="path4"
           d="m 256.95194,89.659702 c 9.86215,24.288038 15.07311,51.406498 7.16139,76.300038 -3.65039,11.48428 -13.58333,20.24669 -18.52748,30.97327 -2.0626,4.47677 -1.4081,11.12243 -1.70213,15.86436 l 1.08901,0 5.44509,-14.35347 c 44.5485,14.68436 32.46583,53.38282 29.40352,80.07726 l -17.42431,0.75545 0,0.75544 16.33528,6.04357 -30.49252,-3.02178 0,0.75544 26.13645,6.79902 0,0.75544 -34.8486,-1.5109 0,0.75546 c 9.61277,0.89822 19.31048,2.96965 28.31449,5.44222 3.98581,1.09389 9.75978,3.85654 14.15615,2.70676 10.21174,-2.66974 18.96309,-15.51232 24.12286,-21.74701 19.58164,-23.66284 28.15114,-50.68664 28.15114,-77.81092 l -30.49253,15.10891 c 24.76537,-16.44228 43.27107,-34.72104 38.25723,-59.68022 -1.14129,-5.68171 -2.72037,-12.69693 -7.7647,-17.37526 -10.7105,19.40892 -18.42294,36.19644 -40.2937,51.37033 17.2457,-21.48715 50.09378,-61.73284 9.80117,-81.58816 0,26.55536 -7.14505,48.13777 -21.78038,72.52281 l -1.08902,0 c 9.46902,-20.19458 15.7189,-43.30231 7.45761,-64.21289 -4.29618,-10.87374 -15.07965,-22.350411 -31.41602,-25.685168 M 229.72647,117.6112 c 0,24.24036 -14.28357,45.5209 -32.72828,65.72378 -7.63621,8.36354 -19.89529,16.49743 -24.98972,25.68516 31.11871,12.03199 27.97798,30.66431 23.95842,51.37032 39.05004,-8.63172 36.20334,-42.79525 45.20408,-64.21289 3.84859,-9.15601 11.78101,-15.69666 13.60293,-25.68516 l -1.08902,0 c -7.31493,7.52046 -16.01402,14.77651 -27.22547,19.64159 20.80135,-15.07719 31.22217,-32.31193 22.8694,-52.88122 l -1.08902,0 c -5.89704,15.80469 -15.48149,29.3876 -31.58155,41.54953 12.07395,-15.04395 40.97107,-46.00076 13.06823,-61.19111 z"
           style="fill:#68bcbe;stroke:none" />
        <path
           sodipodi:nodetypes="cccccccccccccccccccccccccccccc"
           inkscape:connector-curvature="0"
           id="path6"
           d="m 204,247 c -16.199,14.775 -34.498,19.103 -54,10 l 1,-4 c -10.505,0.829 -24.6,-0.865 -32,8 7.235,-3.268 15.857,-7.069 24,-4.436 6.579,2.127 10.984,7.754 18,9.436 l 0,2 c -9.801,3.566 -15.939,-2.915 -25,-6 -0.621,8.207 -8.257,9.428 -10,1 l -8,7 c 12.30534,4.29906 13.26262,9.2955 20,-1 9.449,3.955 15.943,14.1 25,17.396 8.442,3.072 15.004,-4.807 22.576,-5.836 6.369,-0.865 16.574,5.518 23.424,6.44 l 0,-1 -19,-10 0,-1 17,5 0,-1 -14,-10 11,4 0,-1 c -1.683,-1.21 -3.407,-2.386 -5.019,-3.691 C 188.641,259.94 203.531,256.15 204,247 m -104,40 1,0 c 7.79684,-5.97807 11.7091,-6.10142 19.24153,-7.35169 L 118.76695,270.17373 112,269 c -9.674,2.793 -11.994,8.544 -12,18"
           style="fill:#68bcbe;stroke:none" />
        <path
           id="path8"
           d="m 128,286.00115 0,0.79128 c 21.897,4.99143 40.753,20.06857 61,28.28132 19.98,8.10434 41.631,9.20106 62,15.59543 13.376,4.19935 23.316,12.45482 36,17.0522 -0.339,-12.98816 -5.282,-19.90399 -13,-30.86012 12.45,10.05881 24.04,20.5829 38,29.42947 9.059,5.74077 16.306,9.8958 28,6.96964 l -33,-25.32112 c 19.73,9.63627 41.732,30.28327 66,18.19955 l -29,-17.40826 c 10.307,4.34098 24.24,14.50583 36,15.36991 6.654,0.48981 16.372,-4.13129 22,-6.66578 l -28,-8.24915 -58,-19.64126 -23,-9.77713 -12,-5.04839 -19.001,11.40558 -12.999,-3.7499 -30,-6.08656 0,0.79128 c 25.98,4.75562 44.648,18.68303 54,37.98167 -17.312,-7.80365 -32.853,-14.85241 -52,-19.78212 l 4,4.74771 c -19.609,-4.02447 -37.404,-10.1332 -55,-18.08086 -12.861,-5.80803 -27.088,-14.20198 -42,-15.94439 z"
           style="fill:#68bcbe;stroke:none"
           inkscape:connector-curvature="0" />
        <path
           id="path10"
           d="m 288,327.5354 c 1.662,8.571 2.851,17.246 1.711,26 -1.782,13.676 -12.098,29.114 7.289,36 l 0,-1 c -5.756,-4.626 -7.935,-9.702 -8,-17 l 1,0 c 2.356,11.262 9.049,16.465 20,19 l 0,-1 c -14.14,-9.664 -18.341,-33.399 5,-26 l 0,-1 c -4.526,-2.632 -14.127,-3.779 -16.836,-8.148 -6.138,-9.902 1.152,-18.852 -10.164,-26.852 z"
           style="fill:#d4b775;stroke:none"
           inkscape:connector-curvature="0" />
        <text
           id="text12"
           style="font-style:normal;font-variant:normal;font-weight:bold;font-stretch:normal;font-size:40.19342804px;font-family:sans-serif;fill:#525055"
           y="389.94067"
           x="97.881355">OSPREY</text>
      </g>
    </g>
  </g>
</svg>
